# xmcd
#
# Track frame offsets:
#  150
#  12857
#  29677
#  43264
#  57221
#  69807
#  80575
#  91496
#  104343
#  118073
#  132981
#  146352
#  159024
#  171276
#  185056
#  197390
#
# Disc length: 2800 seconds
#
# Revision: 0
# Processed by: cddbd v1.5.1PL0 Copyright (c) Steve Scherf et al.
# Submitted via: Collectorz.com Music Collector 6.9
#
DISCID=d60aee10
DTITLE=Various Artist - I'll Never Let You Go
DYEAR=2004
DGENRE=Country
TTITLE0=Porter Wagoner - When The One You Love Says I Love You
TTITLE1=Townes Van Zandt - If I Needed You
TTITLE2=Kenny Rogers and The First Edition - But You Know I Love You
TTITLE3=Lee Greenwood - I.O.U
TTITLE4=Willie Nelson - Any Old Arms Won't Do
TTITLE5=Loretta Lynn - Crazy
TTITLE6=Hank Locklin - Please Help Me I'm Falling
TTITLE7=Hank Locklin - Daytime Love Affair
TTITLE8=Jerry Lee Lewis - I Love You Because
TTITLE9=Tom Jones - I Can't Stop Loving You
TTITLE10=Red Foley - Have I Told You Lately That I Love You
TTITLE11=Freddy Fender - Since I Met You Baby
TTITLE12=Johnny Cash - Your The Nearest Thing To Heaven
TTITLE13=The Carter Family - I'm Thinking Tonight of My Blue Eyes
TTITLE14=Gene Autry - I'll Never Let You Go
TTITLE15=Eddy Arnold - Each Minute Seems A Million Years
EXTD=
EXTT0=
EXTT1=
EXTT2=
EXTT3=
EXTT4=
EXTT5=
EXTT6=
EXTT7=
EXTT8=
EXTT9=
EXTT10=
EXTT11=
EXTT12=
EXTT13=
EXTT14=
EXTT15=
PLAYORDER=
